<?xml version="1.0" encoding="UTF-8" standalone="no"?>
<!-- Created with Inkscape (http://www.inkscape.org/) -->

<svg
   xmlns:osb="http://www.openswatchbook.org/uri/2009/osb"
   xmlns:dc="http://purl.org/dc/elements/1.1/"
   xmlns:cc="http://creativecommons.org/ns#"
   xmlns:rdf="http://www.w3.org/1999/02/22-rdf-syntax-ns#"
   xmlns:svg="http://www.w3.org/2000/svg"
   xmlns="http://www.w3.org/2000/svg"
   xmlns:sodipodi="http://sodipodi.sourceforge.net/DTD/sodipodi-0.dtd"
   xmlns:inkscape="http://www.inkscape.org/namespaces/inkscape"
   width="48mm"
   height="48mm"
   viewBox="0 0 48 48"
   version="1.1"
   id="svg8"
   inkscape:version="0.91 r13725"
   sodipodi:docname="sword.svg"
   inkscape:export-filename="/home/ryland/Games/realmofrealms/floor.png"
   inkscape:export-xdpi="76.199997"
   inkscape:export-ydpi="76.199997">
  <defs
     id="defs2">
    <linearGradient
       id="peach"
       osb:paint="solid">
      <stop
         style="stop-color:#ffccaa;stop-opacity:1;"
         offset="0"
         id="stop4697" />
    </linearGradient>
    <linearGradient
       id="pink"
       osb:paint="solid">
      <stop
         style="stop-color:#ff77a8;stop-opacity:1;"
         offset="0"
         id="stop4691" />
    </linearGradient>
    <linearGradient
       id="indigo"
       osb:paint="solid">
      <stop
         style="stop-color:#83769c;stop-opacity:1;"
         offset="0"
         id="stop4685" />
    </linearGradient>
    <linearGradient
       id="blue"
       osb:paint="solid">
      <stop
         style="stop-color:#29adff;stop-opacity:1;"
         offset="0"
         id="stop4679" />
    </linearGradient>
    <linearGradient
       id="green"
       osb:paint="solid">
      <stop
         style="stop-color:#00e436;stop-opacity:1;"
         offset="0"
         id="stop4669" />
    </linearGradient>
    <linearGradient
       id="yellow"
       osb:paint="solid">
      <stop
         style="stop-color:#ffec27;stop-opacity:1;"
         offset="0"
         id="stop4659" />
    </linearGradient>
    <linearGradient
       id="orange"
       osb:paint="solid">
      <stop
         style="stop-color:#ffa300;stop-opacity:1;"
         offset="0"
         id="stop4649" />
    </linearGradient>
    <linearGradient
       id="red"
       osb:paint="solid">
      <stop
         style="stop-color:#ff004d;stop-opacity:1;"
         offset="0"
         id="stop4639" />
    </linearGradient>
    <linearGradient
       id="white"
       osb:paint="solid"
       gradientTransform="matrix(0.69926213,-0.71486535,0.71486535,0.69926213,-207.10844,87.654712)">
      <stop
         style="stop-color:#fff1e8;stop-opacity:1;"
         offset="0"
         id="stop4629" />
    </linearGradient>
    <linearGradient
       id="light-grey"
       osb:paint="solid">
      <stop
         style="stop-color:#c2c3c7;stop-opacity:1;"
         offset="0"
         id="stop4619" />
    </linearGradient>
    <linearGradient
       id="dark-grey"
       osb:paint="solid">
      <stop
         style="stop-color:#5f574f;stop-opacity:1;"
         offset="0"
         id="stop4609" />
    </linearGradient>
    <linearGradient
       id="linearGradient4603">
      <stop
         style="stop-color:#ab5236;stop-opacity:1;"
         offset="0"
         id="stop4601" />
    </linearGradient>
    <linearGradient
       id="brown"
       osb:paint="solid"
       gradientTransform="matrix(0.69926213,-0.71486535,0.71486535,0.69926213,-207.10844,87.654712)">
      <stop
         style="stop-color:#ab5236;stop-opacity:1;"
         offset="0"
         id="stop4591" />
    </linearGradient>
    <linearGradient
       id="dark-green"
       osb:paint="solid">
      <stop
         style="stop-color:#008751;stop-opacity:1;"
         offset="0"
         id="stop4581" />
    </linearGradient>
    <linearGradient
       id="dark-purple"
       osb:paint="solid">
      <stop
         style="stop-color:#7e2553;stop-opacity:1;"
         offset="0"
         id="stop4571" />
    </linearGradient>
    <linearGradient
       id="dark-blue"
       osb:paint="solid">
      <stop
         style="stop-color:#172b53;stop-opacity:1;"
         offset="0"
         id="stop4561" />
    </linearGradient>
    <linearGradient
       id="black"
       osb:paint="solid">
      <stop
         style="stop-color:#000000;stop-opacity:1;"
         offset="0"
         id="stop4520" />
    </linearGradient>
  </defs>
  <sodipodi:namedview
     id="base"
     pagecolor="#ffffff"
     bordercolor="#666666"
     borderopacity="1.0"
     inkscape:pageopacity="0.0"
     inkscape:pageshadow="2"
     inkscape:zoom="7.9195959"
     inkscape:cx="58.421381"
     inkscape:cy="23.360005"
     inkscape:document-units="mm"
     inkscape:current-layer="layer1"
     showgrid="false"
     inkscape:window-width="1600"
     inkscape:window-height="847"
     inkscape:window-x="0"
     inkscape:window-y="0"
     inkscape:window-maximized="1"
     inkscape:object-paths="false" />
  <metadata
     id="metadata5">
    <rdf:RDF>
      <cc:Work
         rdf:about="">
        <dc:format>image/svg+xml</dc:format>
        <dc:type
           rdf:resource="http://purl.org/dc/dcmitype/StillImage" />
        <dc:title></dc:title>
      </cc:Work>
    </rdf:RDF>
  </metadata>
  <g
     inkscape:label="Layer 1"
     inkscape:groupmode="layer"
     id="layer1"
     transform="translate(0,-248.99999)">
    <g
       transform="translate(-1.1759857,1.4967094)"
       style="opacity:1"
       id="g6320"
       inkscape:export-filename="/home/ryland/Games/realmofrealms/swords.png"
       inkscape:export-xdpi="76.199997"
       inkscape:export-ydpi="76.199997">
      <path
         style="fill:url(#brown);fill-rule:evenodd;stroke:#000000;stroke-width:0.28222221px;stroke-linecap:butt;stroke-linejoin:miter;stroke-opacity:1"
         d="m 7.8776818,288.4769 c 0.076426,0.0748 0.1528453,0.14951 0.2292716,0.22427 0.2054165,0.20093 1.2738023,1.25095 1.2648469,0.43964 -0.00171,-0.15501 -0.9436223,-1.02308 -0.9198739,-1.14905 0.033446,-0.17738 0.525245,-0.35817 0.523296,-0.53497 -0.00225,-0.2039 -0.282017,-0.73094 -0.2603102,-0.75313 0.1910446,-0.19531 -0.3820892,0.39062 -0.5731338,0.58593 -0.4070081,0.41609 -0.8140162,0.83218 -1.2210241,1.24826 -0.2013529,0.20585 -0.2114587,0.36391 -0.1710927,0.48069 0.042685,0.1235 0.371589,0.1807 0.28022,0.27411 -0.022827,0.0233 0.8344148,-0.79283 0.8477716,-0.81578 z"
         id="path6322"
         inkscape:connector-curvature="0" />
      <path
         style="fill:url(#white);fill-rule:evenodd;stroke:#000000;stroke-width:0.28222221px;stroke-linecap:butt;stroke-linejoin:miter;stroke-opacity:1"
         d="M 7.3681829,287.97852 C 6.3450266,286.9594 5.4352115,285.93819 4.3859536,284.91183 3.9805248,284.51525 4.3058446,284.241 4.1987303,283.9311 c -0.00308,-0.008 -0.1602059,-0.65432 -0.057068,-0.60417 0.6190209,0.30102 3.4467448,3.62312 3.749258,4.06622"
         id="path6324"
         inkscape:connector-curvature="0" />
      <path
         inkscape:connector-curvature="0"
         id="path6326"
         d="m 7.8776818,288.4769 c 0.076426,0.0748 0.1528453,0.14951 0.2292716,0.22427 0.2054165,0.20093 1.2738023,1.25095 1.2648469,0.43964 -0.00171,-0.15501 -0.9436223,-1.02308 -0.9198739,-1.14905 0.033446,-0.17738 0.525245,-0.35817 0.523296,-0.53497 -0.00225,-0.2039 -0.282017,-0.73094 -0.2603102,-0.75313 0.1910446,-0.19531 -0.3820892,0.39062 -0.5731338,0.58593 -0.4070081,0.41609 -0.8140162,0.83218 -1.2210241,1.24826 -0.2013529,0.20585 -0.2114587,0.36391 -0.1710927,0.48069 0.042685,0.1235 0.371589,0.1807 0.28022,0.27411 -0.022827,0.0233 0.8344148,-0.79283 0.8477716,-0.81578 z"
         style="fill:url(#brown);fill-rule:evenodd;stroke:#000000;stroke-width:0.28222221px;stroke-linecap:butt;stroke-linejoin:miter;stroke-opacity:1" />
      <path
         inkscape:connector-curvature="0"
         id="path6328"
         d="M 7.3681829,287.97852 C 6.3450266,286.9594 5.4352115,285.93819 4.3859536,284.91183 3.9805248,284.51525 4.3058446,284.241 4.1987303,283.9311 c -0.00308,-0.008 -0.1602059,-0.65432 -0.057068,-0.60417 0.6190209,0.30102 3.4467448,3.62312 3.749258,4.06622"
         style="fill:url(#white);fill-rule:evenodd;stroke:#000000;stroke-width:0.28222221px;stroke-linecap:butt;stroke-linejoin:miter;stroke-opacity:1" />
    </g>
    <g
       id="g6350"
       style="opacity:1"
       transform="matrix(0.76938309,-0.63878766,0.63878766,0.76938309,-175.41347,74.356907)"
       inkscape:export-filename="/home/ryland/Games/realmofrealms/swords.png"
       inkscape:export-xdpi="76.199997"
       inkscape:export-ydpi="76.199997">
      <path
         inkscape:connector-curvature="0"
         id="path6352"
         d="m 7.8776818,288.4769 c 0.076426,0.0748 0.1528453,0.14951 0.2292716,0.22427 0.2054165,0.20093 1.2738023,1.25095 1.2648469,0.43964 -0.00171,-0.15501 -0.9436223,-1.02308 -0.9198739,-1.14905 0.033446,-0.17738 0.525245,-0.35817 0.523296,-0.53497 -0.00225,-0.2039 -0.282017,-0.73094 -0.2603102,-0.75313 0.1910446,-0.19531 -0.3820892,0.39062 -0.5731338,0.58593 -0.4070081,0.41609 -0.8140162,0.83218 -1.2210241,1.24826 -0.2013529,0.20585 -0.2114587,0.36391 -0.1710927,0.48069 0.042685,0.1235 0.371589,0.1807 0.28022,0.27411 -0.022827,0.0233 0.8344148,-0.79283 0.8477716,-0.81578 z"
         style="fill:url(#brown);fill-rule:evenodd;stroke:#000000;stroke-width:0.28222221px;stroke-linecap:butt;stroke-linejoin:miter;stroke-opacity:1" />
      <path
         inkscape:connector-curvature="0"
         id="path6354"
         d="M 7.3681829,287.97852 C 6.3450266,286.9594 5.4352115,285.93819 4.3859536,284.91183 3.9805248,284.51525 4.3058446,284.241 4.1987303,283.9311 c -0.00308,-0.008 -0.1602059,-0.65432 -0.057068,-0.60417 0.6190209,0.30102 3.4467448,3.62312 3.749258,4.06622"
         style="fill:url(#white);fill-rule:evenodd;stroke:#000000;stroke-width:0.28222221px;stroke-linecap:butt;stroke-linejoin:miter;stroke-opacity:1" />
      <path
         style="fill:url(#brown);fill-rule:evenodd;stroke:#000000;stroke-width:0.28222221px;stroke-linecap:butt;stroke-linejoin:miter;stroke-opacity:1"
         d="m 7.8776818,288.4769 c 0.076426,0.0748 0.1528453,0.14951 0.2292716,0.22427 0.2054165,0.20093 1.2738023,1.25095 1.2648469,0.43964 -0.00171,-0.15501 -0.9436223,-1.02308 -0.9198739,-1.14905 0.033446,-0.17738 0.525245,-0.35817 0.523296,-0.53497 -0.00225,-0.2039 -0.282017,-0.73094 -0.2603102,-0.75313 0.1910446,-0.19531 -0.3820892,0.39062 -0.5731338,0.58593 -0.4070081,0.41609 -0.8140162,0.83218 -1.2210241,1.24826 -0.2013529,0.20585 -0.2114587,0.36391 -0.1710927,0.48069 0.042685,0.1235 0.371589,0.1807 0.28022,0.27411 -0.022827,0.0233 0.8344148,-0.79283 0.8477716,-0.81578 z"
         id="path6356"
         inkscape:connector-curvature="0" />
      <path
         style="fill:url(#white);fill-rule:evenodd;stroke:#000000;stroke-width:0.28222221px;stroke-linecap:butt;stroke-linejoin:miter;stroke-opacity:1"
         d="M 7.3681829,287.97852 C 6.3450266,286.9594 5.4352115,285.93819 4.3859536,284.91183 3.9805248,284.51525 4.3058446,284.241 4.1987303,283.9311 c -0.00308,-0.008 -0.1602059,-0.65432 -0.057068,-0.60417 0.6190209,0.30102 3.4467448,3.62312 3.749258,4.06622"
         id="path6358"
         inkscape:connector-curvature="0" />
    </g>
    <g
       id="g6360"
       style="opacity:1"
       transform="matrix(0.13426099,-0.99094601,0.99094601,0.13426099,-264.2245,261.62944)"
       inkscape:export-filename="/home/ryland/Games/realmofrealms/swords.png"
       inkscape:export-xdpi="76.199997"
       inkscape:export-ydpi="76.199997">
      <path
         inkscape:connector-curvature="0"
         id="path6362"
         d="m 7.8776818,288.4769 c 0.076426,0.0748 0.1528453,0.14951 0.2292716,0.22427 0.2054165,0.20093 1.2738023,1.25095 1.2648469,0.43964 -0.00171,-0.15501 -0.9436223,-1.02308 -0.9198739,-1.14905 0.033446,-0.17738 0.525245,-0.35817 0.523296,-0.53497 -0.00225,-0.2039 -0.282017,-0.73094 -0.2603102,-0.75313 0.1910446,-0.19531 -0.3820892,0.39062 -0.5731338,0.58593 -0.4070081,0.41609 -0.8140162,0.83218 -1.2210241,1.24826 -0.2013529,0.20585 -0.2114587,0.36391 -0.1710927,0.48069 0.042685,0.1235 0.371589,0.1807 0.28022,0.27411 -0.022827,0.0233 0.8344148,-0.79283 0.8477716,-0.81578 z"
         style="fill:url(#brown);fill-rule:evenodd;stroke:#000000;stroke-width:0.28222221px;stroke-linecap:butt;stroke-linejoin:miter;stroke-opacity:1" />
      <path
         inkscape:connector-curvature="0"
         id="path6364"
         d="M 7.3681829,287.97852 C 6.3450266,286.9594 5.4352115,285.93819 4.3859536,284.91183 3.9805248,284.51525 4.3058446,284.241 4.1987303,283.9311 c -0.00308,-0.008 -0.1602059,-0.65432 -0.057068,-0.60417 0.6190209,0.30102 3.4467448,3.62312 3.749258,4.06622"
         style="fill:url(#white);fill-rule:evenodd;stroke:#000000;stroke-width:0.28222221px;stroke-linecap:butt;stroke-linejoin:miter;stroke-opacity:1" />
      <path
         style="fill:url(#brown);fill-rule:evenodd;stroke:#000000;stroke-width:0.28222221px;stroke-linecap:butt;stroke-linejoin:miter;stroke-opacity:1"
         d="m 7.8776818,288.4769 c 0.076426,0.0748 0.1528453,0.14951 0.2292716,0.22427 0.2054165,0.20093 1.2738023,1.25095 1.2648469,0.43964 -0.00171,-0.15501 -0.9436223,-1.02308 -0.9198739,-1.14905 0.033446,-0.17738 0.525245,-0.35817 0.523296,-0.53497 -0.00225,-0.2039 -0.282017,-0.73094 -0.2603102,-0.75313 0.1910446,-0.19531 -0.3820892,0.39062 -0.5731338,0.58593 -0.4070081,0.41609 -0.8140162,0.83218 -1.2210241,1.24826 -0.2013529,0.20585 -0.2114587,0.36391 -0.1710927,0.48069 0.042685,0.1235 0.371589,0.1807 0.28022,0.27411 -0.022827,0.0233 0.8344148,-0.79283 0.8477716,-0.81578 z"
         id="path6366"
         inkscape:connector-curvature="0" />
      <path
         style="fill:url(#white);fill-rule:evenodd;stroke:#000000;stroke-width:0.28222221px;stroke-linecap:butt;stroke-linejoin:miter;stroke-opacity:1"
         d="M 7.3681829,287.97852 C 6.3450266,286.9594 5.4352115,285.93819 4.3859536,284.91183 3.9805248,284.51525 4.3058446,284.241 4.1987303,283.9311 c -0.00308,-0.008 -0.1602059,-0.65432 -0.057068,-0.60417 0.6190209,0.30102 3.4467448,3.62312 3.749258,4.06622"
         id="path6368"
         inkscape:connector-curvature="0" />
    </g>
  </g>
</svg>
